<?xml version="1.0" standalone="no"?>
<!DOCTYPE svg PUBLIC "-//W3C//DTD SVG 20010904//EN"
 "http://www.w3.org/TR/2001/REC-SVG-20010904/DTD/svg10.dtd">
<svg version="1.0" xmlns="http://www.w3.org/2000/svg"
 width="200.000000pt" height="200.000000pt" viewBox="0 0 200.000000 200.000000"
 preserveAspectRatio="xMidYMid meet">
<metadata>
Created by potrace 1.11, written by Peter Selinger 2001-2013
</metadata>
<g transform="translate(0.000000,200.000000) scale(0.100000,-0.100000)"
fill="#000000" stroke="none">
<path d="M0 1000 l0 -1000 1000 0 1000 0 0 1000 0 1000 -1000 0 -1000 0 0
-1000z m767 319 l2 -244 245 -3 c153 -1 246 -6 246 -12 0 -6 -96 -10 -260 -10
l-260 0 0 261 c0 204 3 260 13 256 9 -3 12 -63 14 -248z m416 214 c-3 -7 3
-16 13 -20 27 -10 35 -25 21 -42 -7 -8 -12 -24 -12 -35 0 -17 -6 -21 -35 -21
-30 0 -35 3 -32 22 2 12 -2 24 -8 28 -18 11 -11 34 16 48 18 9 23 16 15 21 -9
6 -9 11 0 22 14 17 31 0 22 -23z m-133 -140 c0 -7 -12 -13 -27 -13 -25 0 -25
-1 -10 -18 10 -10 17 -26 17 -36 0 -14 -7 -17 -37 -14 -37 3 -38 4 -41 45 -4
51 10 80 40 85 23 4 57 -25 58 -49z m170 -3 c0 -5 -22 -10 -50 -10 -27 0 -50
5 -50 10 0 6 23 10 50 10 28 0 50 -4 50 -10z m-348 -77 c3 -21 1 -43 -3 -49
-6 -7 -3 -26 6 -46 8 -20 11 -38 8 -42 -8 -8 -88 -8 -96 1 -4 3 -2 12 4 20 6
7 8 13 5 13 -4 0 -2 9 4 21 9 15 8 24 -2 36 -9 11 -10 17 -2 20 6 2 9 15 6 30
-3 18 1 30 13 39 27 20 52 1 57 -43z m356 -85 l-3 -133 -52 -3 -53 -3 0 135 0
136 55 0 56 0 -3 -132z m-178 62 c0 -5 -22 -10 -50 -10 -27 0 -50 5 -50 10 0
6 23 10 50 10 28 0 50 -4 50 -10z m5 -115 l0 -80 -52 -3 -53 -3 0 86 0 86 53
-3 52 -3 0 -80z m-165 -50 l0 -35 -55 0 -55 0 0 35 0 35 55 0 55 0 0 -35z
m1050 -345 l0 -150 -945 0 -945 0 0 150 0 150 945 0 945 0 0 -150z"/>
<path d="M60 780 l0 -140 255 0 255 0 0 140 0 140 -255 0 -255 0 0 -140z m108
27 c2 -56 0 -69 -18 -87 -22 -22 -50 -24 -57 -3 -2 6 6 13 19 15 21 3 23 8 26
76 4 95 26 95 30 -1z m149 58 c2 -7 -12 -11 -33 -11 -41 0 -64 -23 -64 -63 0
-36 27 -61 67 -61 36 0 45 -15 14 -23 -54 -14 -111 29 -111 85 0 43 50 90 92
86 17 -2 33 -8 35 -13z m82 -27 c10 -24 22 -52 26 -63 6 -16 11 -9 30 40 29
76 50 83 59 19 10 -77 8 -126 -6 -122 -8 3 -14 28 -16 64 l-4 59 -22 -60 c-13
-33 -29 -60 -36 -60 -7 0 -23 27 -34 60 l-21 60 -3 -62 c-2 -44 -7 -63 -16
-63 -10 0 -12 17 -9 73 3 39 6 78 8 85 8 24 26 11 44 -30z"/>
<path d="M580 780 l0 -140 675 0 675 0 0 140 0 140 -675 0 -675 0 0 -140z
m110 54 c11 -25 20 -52 20 -60 0 -32 18 -11 36 42 17 49 37 75 49 63 2 -2 6
-41 10 -86 7 -73 6 -83 -9 -83 -13 0 -16 12 -17 63 l0 62 -23 -60 c-13 -33
-29 -60 -36 -60 -7 0 -20 21 -29 47 -23 68 -31 69 -31 5 0 -43 -4 -57 -14 -57
-12 0 -14 14 -10 73 3 39 7 78 10 85 7 24 25 11 44 -34z m252 -35 c32 -88 32
-89 14 -89 -8 0 -17 11 -20 25 -5 20 -13 25 -36 25 -23 0 -31 -5 -36 -25 -3
-14 -12 -25 -20 -25 -8 0 -14 1 -14 3 0 8 49 148 55 158 14 22 31 0 57 -72z
m139 71 c20 -11 26 -49 9 -66 -7 -7 -6 -22 5 -47 18 -44 18 -47 2 -47 -7 0
-20 15 -28 32 -8 18 -22 34 -31 36 -15 3 -18 -4 -18 -32 0 -25 -4 -36 -15 -36
-12 0 -15 15 -15 78 0 43 3 82 7 85 10 11 62 8 84 -3z m74 -28 c0 -18 2 -32 4
-32 2 0 19 17 36 38 41 46 57 36 20 -12 l-27 -36 24 -32 c38 -51 41 -58 24
-58 -9 0 -26 16 -38 35 -27 40 -42 40 -43 0 0 -16 -6 -30 -12 -33 -10 -3 -13
18 -13 83 0 65 3 86 13 82 6 -2 12 -18 12 -35z m205 23 c0 -10 -11 -15 -35
-15 -28 0 -35 -4 -35 -20 0 -16 7 -20 36 -20 45 0 42 -24 -4 -28 -26 -3 -32
-8 -32 -28 0 -21 4 -24 40 -24 22 0 40 -4 40 -10 0 -5 -22 -10 -50 -10 l-50 0
0 85 0 85 45 0 c33 0 45 -4 45 -15z m148 3 c-3 -7 -14 -14 -26 -16 -20 -3 -22
-9 -22 -73 0 -55 -3 -69 -15 -69 -12 0 -15 14 -15 70 0 68 -1 70 -25 70 -16 0
-25 6 -25 15 0 12 14 15 66 15 48 0 65 -3 62 -12z m42 -73 c0 -69 -3 -85 -15
-85 -12 0 -15 15 -15 78 0 43 3 82 7 85 18 18 23 0 23 -78z m96 25 l39 -60 5
55 c8 85 25 71 28 -22 4 -105 -11 -109 -68 -21 l-40 61 0 -61 c0 -48 -3 -62
-15 -62 -12 0 -15 15 -15 78 0 114 10 119 66 32z m231 44 c2 -7 -11 -11 -38
-10 -47 1 -69 -20 -69 -65 0 -36 24 -59 61 -59 24 0 29 4 29 25 0 19 -5 25
-22 25 -16 0 -19 3 -11 11 6 6 21 9 34 7 19 -2 25 -10 27 -37 4 -43 -7 -54
-59 -54 -83 0 -118 86 -59 144 24 25 37 30 67 27 20 -2 38 -8 40 -14z"/>
<path d="M890 828 c0 -9 -3 -23 -6 -32 -4 -12 0 -16 16 -16 18 0 20 4 15 23
-10 30 -25 46 -25 25z"/>
<path d="M1020 830 c0 -23 5 -30 19 -30 10 0 25 7 32 16 11 14 10 18 -6 30
-30 22 -45 17 -45 -16z"/>
</g>
</svg>
